<svg width="20" height="17" viewBox="0 0 20 17" fill="none" xmlns="http://www.w3.org/2000/svg">
<path d="M2.375 14.0625V16.8125M17.5 14.0625V16.8125M1 7.875H18.875V14.0625H1V7.875ZM17.5 7.875V3.75C17.5 3.02065 17.2103 2.32118 16.6945 1.80546C16.1788 1.28973 15.4793 1 14.75 1H5.125C4.39565 1 3.69618 1.28973 3.18046 1.80546C2.66473 2.32118 2.375 3.02065 2.375 3.75V7.875H17.5ZM14.75 7.875V6.5C14.75 6.13533 14.6051 5.78559 14.3473 5.52773C14.0894 5.26987 13.7397 5.125 13.375 5.125C13.0103 5.125 12.6606 5.26987 12.4027 5.52773C12.1449 5.78559 12 6.13533 12 6.5V7.875H14.75ZM7.875 7.875V6.5C7.875 6.13533 7.73013 5.78559 7.47227 5.52773C7.21441 5.26987 6.86467 5.125 6.5 5.125C6.13533 5.125 5.78559 5.26987 5.52773 5.52773C5.26987 5.78559 5.125 6.13533 5.125 6.5V7.875H7.875Z" stroke="#696969" stroke-width="2" stroke-linejoin="round"/>
</svg>
