<svg width="24" height="24" viewBox="0 0 24 24" fill="none" xmlns="http://www.w3.org/2000/svg">
<path fill-rule="evenodd" clip-rule="evenodd" d="M10.033 2.88301C10.5787 2.40911 11.2772 2.14816 12 2.14816C12.7228 2.14816 13.4213 2.40911 13.967 2.88301L20.967 8.95901C21.2914 9.24072 21.5515 9.58882 21.7297 9.97976C21.908 10.3707 22.0001 10.7954 22 11.225V19C22 19.7957 21.6839 20.5587 21.1213 21.1213C20.5587 21.6839 19.7956 22 19 22H15.5C15.1022 22 14.7206 21.842 14.4393 21.5607C14.158 21.2794 14 20.8978 14 20.5V13.687H10V20.5C10 20.8978 9.84196 21.2794 9.56066 21.5607C9.27936 21.842 8.89782 22 8.5 22H5C4.20435 22 3.44129 21.6839 2.87868 21.1213C2.31607 20.5587 2 19.7957 2 19V11.225C1.99988 10.7954 2.09205 10.3707 2.27026 9.97976C2.44848 9.58882 2.70859 9.24072 3.033 8.95901L10.033 2.88301ZM12.656 4.39301C12.474 4.23486 12.2411 4.14777 12 4.14777C11.7589 4.14777 11.526 4.23486 11.344 4.39301L4.344 10.47C4.23597 10.5639 4.14935 10.6799 4.09001 10.8102C4.03066 10.9404 3.99997 11.0819 4 11.225V19C4 19.2652 4.10536 19.5196 4.29289 19.7071C4.48043 19.8947 4.73478 20 5 20H8V13.687C8 13.1566 8.21071 12.6479 8.58579 12.2728C8.96086 11.8977 9.46957 11.687 10 11.687H14C14.5304 11.687 15.0391 11.8977 15.4142 12.2728C15.7893 12.6479 16 13.1566 16 13.687V20H19C19.2652 20 19.5196 19.8947 19.7071 19.7071C19.8946 19.5196 20 19.2652 20 19V11.225C19.9999 11.0818 19.9691 10.9403 19.9095 10.81C19.85 10.6798 19.7632 10.5638 19.655 10.47L12.656 4.39301Z" fill="#303030"/>
</svg>
