<svg width="18" height="18" viewBox="0 0 18 18" fill="none" xmlns="http://www.w3.org/2000/svg">
<mask id="path-1-inside-1_528_766" fill="white">
<path d="M7.5 3.75H10.5C10.5 3.35218 10.342 2.97064 10.0607 2.68934C9.77936 2.40804 9.39782 2.25 9 2.25C8.60218 2.25 8.22064 2.40804 7.93934 2.68934C7.65804 2.97064 7.5 3.35218 7.5 3.75ZM6.375 3.75C6.375 3.40528 6.4429 3.06394 6.57482 2.74546C6.70673 2.42698 6.90009 2.1376 7.14384 1.89384C7.3876 1.65009 7.67698 1.45673 7.99546 1.32482C8.31394 1.1929 8.65528 1.125 9 1.125C9.34472 1.125 9.68606 1.1929 10.0045 1.32482C10.323 1.45673 10.6124 1.65009 10.8562 1.89384C11.0999 2.1376 11.2933 2.42698 11.4252 2.74546C11.5571 3.06394 11.625 3.40528 11.625 3.75H15.9375C16.0867 3.75 16.2298 3.80926 16.3352 3.91475C16.4407 4.02024 16.5 4.16332 16.5 4.3125C16.5 4.46168 16.4407 4.60476 16.3352 4.71025C16.2298 4.81574 16.0867 4.875 15.9375 4.875H14.9475L14.07 13.9583C14.0027 14.6542 13.6785 15.3002 13.1608 15.7701C12.643 16.2401 11.9687 16.5003 11.2695 16.5H6.7305C6.0314 16.5001 5.35733 16.2398 4.83971 15.7699C4.3221 15.3 3.99805 14.6541 3.93075 13.9583L3.0525 4.875H2.0625C1.91332 4.875 1.77024 4.81574 1.66475 4.71025C1.55926 4.60476 1.5 4.46168 1.5 4.3125C1.5 4.16332 1.55926 4.02024 1.66475 3.91475C1.77024 3.80926 1.91332 3.75 2.0625 3.75H6.375ZM7.875 7.3125C7.875 7.16332 7.81574 7.02024 7.71025 6.91475C7.60476 6.80926 7.46168 6.75 7.3125 6.75C7.16332 6.75 7.02024 6.80926 6.91475 6.91475C6.80926 7.02024 6.75 7.16332 6.75 7.3125V12.9375C6.75 13.0867 6.80926 13.2298 6.91475 13.3352C7.02024 13.4407 7.16332 13.5 7.3125 13.5C7.46168 13.5 7.60476 13.4407 7.71025 13.3352C7.81574 13.2298 7.875 13.0867 7.875 12.9375V7.3125ZM10.6875 6.75C10.8367 6.75 10.9798 6.80926 11.0852 6.91475C11.1907 7.02024 11.25 7.16332 11.25 7.3125V12.9375C11.25 13.0867 11.1907 13.2298 11.0852 13.3352C10.9798 13.4407 10.8367 13.5 10.6875 13.5C10.5383 13.5 10.3952 13.4407 10.2898 13.3352C10.1843 13.2298 10.125 13.0867 10.125 12.9375V7.3125C10.125 7.16332 10.1843 7.02024 10.2898 6.91475C10.3952 6.80926 10.5383 6.75 10.6875 6.75ZM5.0505 13.8502C5.09095 14.2677 5.28543 14.6552 5.59603 14.9371C5.90662 15.219 6.31106 15.3751 6.7305 15.375H11.2695C11.6889 15.3751 12.0934 15.219 12.404 14.9371C12.7146 14.6552 12.909 14.2677 12.9495 13.8502L13.818 4.875H4.182L5.0505 13.8502Z"/>
</mask>
<path d="M7.5 3.75H10.5C10.5 3.35218 10.342 2.97064 10.0607 2.68934C9.77936 2.40804 9.39782 2.25 9 2.25C8.60218 2.25 8.22064 2.40804 7.93934 2.68934C7.65804 2.97064 7.5 3.35218 7.5 3.75ZM6.375 3.75C6.375 3.40528 6.4429 3.06394 6.57482 2.74546C6.70673 2.42698 6.90009 2.1376 7.14384 1.89384C7.3876 1.65009 7.67698 1.45673 7.99546 1.32482C8.31394 1.1929 8.65528 1.125 9 1.125C9.34472 1.125 9.68606 1.1929 10.0045 1.32482C10.323 1.45673 10.6124 1.65009 10.8562 1.89384C11.0999 2.1376 11.2933 2.42698 11.4252 2.74546C11.5571 3.06394 11.625 3.40528 11.625 3.75H15.9375C16.0867 3.75 16.2298 3.80926 16.3352 3.91475C16.4407 4.02024 16.5 4.16332 16.5 4.3125C16.5 4.46168 16.4407 4.60476 16.3352 4.71025C16.2298 4.81574 16.0867 4.875 15.9375 4.875H14.9475L14.07 13.9583C14.0027 14.6542 13.6785 15.3002 13.1608 15.7701C12.643 16.2401 11.9687 16.5003 11.2695 16.5H6.7305C6.0314 16.5001 5.35733 16.2398 4.83971 15.7699C4.3221 15.3 3.99805 14.6541 3.93075 13.9583L3.0525 4.875H2.0625C1.91332 4.875 1.77024 4.81574 1.66475 4.71025C1.55926 4.60476 1.5 4.46168 1.5 4.3125C1.5 4.16332 1.55926 4.02024 1.66475 3.91475C1.77024 3.80926 1.91332 3.75 2.0625 3.75H6.375ZM7.875 7.3125C7.875 7.16332 7.81574 7.02024 7.71025 6.91475C7.60476 6.80926 7.46168 6.75 7.3125 6.75C7.16332 6.75 7.02024 6.80926 6.91475 6.91475C6.80926 7.02024 6.75 7.16332 6.75 7.3125V12.9375C6.75 13.0867 6.80926 13.2298 6.91475 13.3352C7.02024 13.4407 7.16332 13.5 7.3125 13.5C7.46168 13.5 7.60476 13.4407 7.71025 13.3352C7.81574 13.2298 7.875 13.0867 7.875 12.9375V7.3125ZM10.6875 6.75C10.8367 6.75 10.9798 6.80926 11.0852 6.91475C11.1907 7.02024 11.25 7.16332 11.25 7.3125V12.9375C11.25 13.0867 11.1907 13.2298 11.0852 13.3352C10.9798 13.4407 10.8367 13.5 10.6875 13.5C10.5383 13.5 10.3952 13.4407 10.2898 13.3352C10.1843 13.2298 10.125 13.0867 10.125 12.9375V7.3125C10.125 7.16332 10.1843 7.02024 10.2898 6.91475C10.3952 6.80926 10.5383 6.75 10.6875 6.75ZM5.0505 13.8502C5.09095 14.2677 5.28543 14.6552 5.59603 14.9371C5.90662 15.219 6.31106 15.3751 6.7305 15.375H11.2695C11.6889 15.3751 12.0934 15.219 12.404 14.9371C12.7146 14.6552 12.909 14.2677 12.9495 13.8502L13.818 4.875H4.182L5.0505 13.8502Z" fill="#696969"/>
<path d="M7.5 3.75H6.3V4.95H7.5V3.75ZM10.5 3.75V4.95H11.7V3.75H10.5ZM9 2.25V1.05V2.25ZM6.375 3.75V4.95H7.575L7.575 3.75H6.375ZM9 1.125V-0.075V1.125ZM11.625 3.75H10.425V4.95H11.625V3.75ZM15.9375 3.75V2.55V3.75ZM15.9375 4.875V6.075V4.875ZM14.9475 4.875V3.675H13.8578L13.7531 4.75961L14.9475 4.875ZM14.07 13.9583L15.2644 14.0738L15.2644 14.0736L14.07 13.9583ZM11.2695 16.5L11.27 15.3H11.2695V16.5ZM6.7305 16.5V15.3H6.73037L6.7305 16.5ZM3.93075 13.9583L2.73632 14.0737L2.73632 14.0738L3.93075 13.9583ZM3.0525 4.875L4.24693 4.75951L4.14207 3.675H3.0525V4.875ZM2.0625 4.875V6.075V4.875ZM2.0625 3.75V2.55V3.75ZM5.0505 13.8502L3.85608 13.9658L3.85609 13.966L5.0505 13.8502ZM6.7305 15.375L6.7305 14.175H6.73024L6.7305 15.375ZM11.2695 15.375L11.2698 14.175H11.2695V15.375ZM12.9495 13.8502L14.1439 13.966L14.1439 13.9658L12.9495 13.8502ZM13.818 4.875L15.0124 4.99058L15.1397 3.675H13.818V4.875ZM4.182 4.875V3.675H2.86028L2.98758 4.99058L4.182 4.875ZM7.5 4.95H10.5V2.55H7.5V4.95ZM11.7 3.75C11.7 3.03391 11.4155 2.34716 10.9092 1.84081L9.21213 3.53787C9.26839 3.59413 9.3 3.67044 9.3 3.75H11.7ZM10.9092 1.84081C10.4028 1.33446 9.71608 1.05 9 1.05V3.45C9.07957 3.45 9.15587 3.48161 9.21213 3.53787L10.9092 1.84081ZM9 1.05C8.28392 1.05 7.59716 1.33446 7.09081 1.84081L8.78787 3.53787C8.84413 3.48161 8.92043 3.45 9 3.45V1.05ZM7.09081 1.84081C6.58446 2.34716 6.3 3.03391 6.3 3.75H8.7C8.7 3.67044 8.73161 3.59413 8.78787 3.53787L7.09081 1.84081ZM7.575 3.75C7.575 3.56287 7.61186 3.37756 7.68347 3.20468L5.46616 2.28624C5.27394 2.75031 5.175 3.24769 5.175 3.75H7.575ZM7.68347 3.20468C7.75508 3.03179 7.86005 2.8747 7.99237 2.74237L6.29532 1.04532C5.94013 1.4005 5.65838 1.82217 5.46616 2.28624L7.68347 3.20468ZM7.99237 2.74237C8.1247 2.61005 8.28179 2.50508 8.45468 2.43347L7.53624 0.216161C7.07217 0.408385 6.6505 0.690132 6.29532 1.04532L7.99237 2.74237ZM8.45468 2.43347C8.62757 2.36186 8.81287 2.325 9 2.325V-0.075C8.49769 -0.075 8.00031 0.0239366 7.53624 0.216161L8.45468 2.43347ZM9 2.325C9.18713 2.325 9.37243 2.36186 9.54532 2.43347L10.4638 0.216161C9.99969 0.0239366 9.50231 -0.075 9 -0.075V2.325ZM9.54532 2.43347C9.71821 2.50508 9.8753 2.61005 10.0076 2.74237L11.7047 1.04532C11.3495 0.690132 10.9278 0.408385 10.4638 0.216161L9.54532 2.43347ZM10.0076 2.74237C10.14 2.8747 10.2449 3.03179 10.3165 3.20468L12.5338 2.28624C12.3416 1.82217 12.0599 1.4005 11.7047 1.04532L10.0076 2.74237ZM10.3165 3.20468C10.3881 3.37756 10.425 3.56287 10.425 3.75H12.825C12.825 3.24769 12.7261 2.75031 12.5338 2.28624L10.3165 3.20468ZM11.625 4.95H15.9375V2.55H11.625V4.95ZM15.9375 4.95C15.7684 4.95 15.6063 4.88284 15.4867 4.76328L17.1838 3.06622C16.8532 2.73569 16.4049 2.55 15.9375 2.55V4.95ZM15.4867 4.76328C15.3672 4.64372 15.3 4.48157 15.3 4.3125H17.7C17.7 3.84506 17.5143 3.39676 17.1838 3.06622L15.4867 4.76328ZM15.3 4.3125C15.3 4.14343 15.3672 3.98128 15.4867 3.86172L17.1838 5.55878C17.5143 5.22824 17.7 4.77994 17.7 4.3125H15.3ZM15.4867 3.86172C15.6063 3.74216 15.7684 3.675 15.9375 3.675V6.075C16.4049 6.075 16.8532 5.88931 17.1838 5.55878L15.4867 3.86172ZM15.9375 3.675H14.9475V6.075H15.9375V3.675ZM13.7531 4.75961L12.8756 13.8429L15.2644 14.0736L16.1419 4.99039L13.7531 4.75961ZM12.8756 13.8427C12.837 14.2418 12.6511 14.6121 12.3543 14.8815L13.9672 16.6587C14.7059 15.9883 15.1684 15.0667 15.2644 14.0738L12.8756 13.8427ZM12.3543 14.8815C12.0574 15.151 11.6708 15.3002 11.27 15.3L11.269 17.7C12.2666 17.7004 13.2286 17.3291 13.9672 16.6587L12.3543 14.8815ZM11.2695 15.3H6.7305V17.7H11.2695V15.3ZM6.73037 15.3C6.32955 15.3 5.94308 15.1508 5.64631 14.8814L4.03311 16.6583C4.77157 17.3288 5.73325 17.7001 6.73063 17.7L6.73037 15.3ZM5.64631 14.8814C5.34955 14.612 5.16376 14.2417 5.12518 13.8427L2.73632 14.0738C2.83234 15.0665 3.29465 15.9879 4.03311 16.6583L5.64631 14.8814ZM5.12518 13.8428L4.24693 4.75951L1.85807 4.99049L2.73632 14.0737L5.12518 13.8428ZM3.0525 3.675H2.0625V6.075H3.0525V3.675ZM2.0625 3.675C2.23157 3.675 2.39373 3.74216 2.51328 3.86172L0.816224 5.55878C1.14676 5.88931 1.59506 6.075 2.0625 6.075V3.675ZM2.51328 3.86172C2.63284 3.98127 2.7 4.14342 2.7 4.3125H0.3C0.3 4.77994 0.485691 5.22824 0.816224 5.55878L2.51328 3.86172ZM2.7 4.3125C2.7 4.48158 2.63284 4.64373 2.51328 4.76328L0.816224 3.06622C0.485691 3.39676 0.3 3.84506 0.3 4.3125H2.7ZM2.51328 4.76328C2.39373 4.88284 2.23157 4.95 2.0625 4.95V2.55C1.59506 2.55 1.14676 2.73569 0.816224 3.06622L2.51328 4.76328ZM2.0625 4.95H6.375V2.55H2.0625V4.95ZM9.075 7.3125C9.075 6.84505 8.88931 6.39676 8.55878 6.06622L6.86172 7.76328C6.74217 7.64373 6.675 7.48158 6.675 7.3125H9.075ZM8.55878 6.06622C8.22824 5.73569 7.77995 5.55 7.3125 5.55V7.95C7.14342 7.95 6.98127 7.88283 6.86172 7.76328L8.55878 6.06622ZM7.3125 5.55C6.84505 5.55 6.39676 5.73569 6.06622 6.06622L7.76328 7.76328C7.64373 7.88283 7.48158 7.95 7.3125 7.95V5.55ZM6.06622 6.06622C5.73569 6.39676 5.55 6.84505 5.55 7.3125H7.95C7.95 7.48158 7.88283 7.64373 7.76328 7.76328L6.06622 6.06622ZM5.55 7.3125V12.9375H7.95V7.3125H5.55ZM5.55 12.9375C5.55 13.4049 5.73569 13.8532 6.06622 14.1838L7.76328 12.4867C7.88283 12.6063 7.95 12.7684 7.95 12.9375H5.55ZM6.06622 14.1838C6.39676 14.5143 6.84506 14.7 7.3125 14.7V12.3C7.48157 12.3 7.64373 12.3672 7.76328 12.4867L6.06622 14.1838ZM7.3125 14.7C7.77994 14.7 8.22824 14.5143 8.55878 14.1838L6.86172 12.4867C6.98127 12.3672 7.14343 12.3 7.3125 12.3V14.7ZM8.55878 14.1838C8.88931 13.8532 9.075 13.4049 9.075 12.9375H6.675C6.675 12.7684 6.74217 12.6063 6.86172 12.4867L8.55878 14.1838ZM9.075 12.9375V7.3125H6.675V12.9375H9.075ZM10.6875 7.95C10.5184 7.95 10.3563 7.88283 10.2367 7.76328L11.9338 6.06622C11.6032 5.73569 11.1549 5.55 10.6875 5.55V7.95ZM10.2367 7.76328C10.1172 7.64373 10.05 7.48158 10.05 7.3125H12.45C12.45 6.84505 12.2643 6.39676 11.9338 6.06622L10.2367 7.76328ZM10.05 7.3125V12.9375H12.45V7.3125H10.05ZM10.05 12.9375C10.05 12.7684 10.1172 12.6063 10.2367 12.4867L11.9338 14.1838C12.2643 13.8532 12.45 13.4049 12.45 12.9375H10.05ZM10.2367 12.4867C10.3563 12.3672 10.5184 12.3 10.6875 12.3V14.7C11.1549 14.7 11.6032 14.5143 11.9338 14.1838L10.2367 12.4867ZM10.6875 12.3C10.8566 12.3 11.0187 12.3672 11.1383 12.4867L9.44122 14.1838C9.77176 14.5143 10.2201 14.7 10.6875 14.7V12.3ZM11.1383 12.4867C11.2578 12.6063 11.325 12.7684 11.325 12.9375H8.925C8.925 13.4049 9.11069 13.8532 9.44122 14.1838L11.1383 12.4867ZM11.325 12.9375V7.3125H8.925V12.9375H11.325ZM11.325 7.3125C11.325 7.48158 11.2578 7.64373 11.1383 7.76328L9.44122 6.06622C9.11069 6.39676 8.925 6.84505 8.925 7.3125H11.325ZM11.1383 7.76328C11.0187 7.88283 10.8566 7.95 10.6875 7.95V5.55C10.2201 5.55 9.77176 5.73569 9.44122 6.06622L11.1383 7.76328ZM3.85609 13.966C3.92531 14.6803 4.25809 15.3433 4.78955 15.8257L6.4025 14.0485C6.31278 13.9671 6.25659 13.8551 6.24491 13.7345L3.85609 13.966ZM4.78955 15.8257C5.32101 16.308 6.01305 16.5752 6.73076 16.575L6.73024 14.175C6.60907 14.175 6.49223 14.1299 6.4025 14.0485L4.78955 15.8257ZM6.7305 16.575H11.2695V14.175H6.7305V16.575ZM11.2692 16.575C11.9869 16.5752 12.679 16.308 13.2105 15.8257L11.5975 14.0485C11.5078 14.1299 11.3909 14.175 11.2698 14.175L11.2692 16.575ZM13.2105 15.8257C13.7419 15.3433 14.0747 14.6803 14.1439 13.966L11.7551 13.7345C11.7434 13.8551 11.6872 13.9671 11.5975 14.0485L13.2105 15.8257ZM14.1439 13.9658L15.0124 4.99058L12.6236 4.75942L11.7551 13.7347L14.1439 13.9658ZM13.818 3.675H4.182V6.075H13.818V3.675ZM2.98758 4.99058L3.85608 13.9658L6.24492 13.7347L5.37642 4.75942L2.98758 4.99058Z" fill="#696969" mask="url(#path-1-inside-1_528_766)"/>
</svg>
