<svg width="18" height="18" viewBox="0 0 18 18" fill="none" xmlns="http://www.w3.org/2000/svg">
<path d="M14.3173 10.8307V14.1607C14.3171 14.6318 14.1298 15.0836 13.7967 15.4168C13.4635 15.75 13.0117 15.9372 12.5405 15.9374H3.83977C3.60559 15.9373 3.37373 15.891 3.15752 15.801C2.94131 15.711 2.74502 15.5792 2.57991 15.4131C2.41481 15.247 2.28415 15.0499 2.19544 14.8332C2.10674 14.6165 2.06174 14.3844 2.06302 14.1502V5.45917C2.06163 5.22536 2.10665 4.99359 2.19549 4.77731C2.28432 4.56102 2.4152 4.36452 2.58053 4.19918C2.74587 4.03385 2.94237 3.90297 3.15865 3.81414C3.37494 3.7253 3.60671 3.68028 3.84052 3.68167H7.16977" stroke="#696969" stroke-width="1.2" stroke-linecap="round" stroke-linejoin="round"/>
<path d="M14.3172 6.74629L11.2535 3.68179M5.12598 11.8523V10.2285C5.12748 9.96079 5.23398 9.70354 5.42223 9.51379L12.5712 2.36479C12.6661 2.26887 12.779 2.19272 12.9035 2.14074C13.028 2.08877 13.1616 2.06201 13.2965 2.06201C13.4314 2.06201 13.5649 2.08877 13.6894 2.14074C13.8139 2.19272 13.9269 2.26887 14.0217 2.36479L15.635 3.97804C15.7309 4.07289 15.807 4.18584 15.859 4.31033C15.911 4.43482 15.9378 4.56838 15.9378 4.70329C15.9378 4.83819 15.911 4.97175 15.859 5.09624C15.807 5.22073 15.7309 5.33368 15.635 5.42854L8.48598 12.5775C8.29588 12.7663 8.03914 12.8727 7.77123 12.8738H6.14748C6.01328 12.874 5.88036 12.8477 5.75633 12.7964C5.63231 12.7452 5.51962 12.6699 5.42473 12.575C5.32983 12.4801 5.2546 12.3675 5.20333 12.2434C5.15207 12.1194 5.12578 11.9865 5.12598 11.8523Z" stroke="#696969" stroke-width="1.2" stroke-linecap="round" stroke-linejoin="round"/>
</svg>
