<svg width="14" height="16" viewBox="0 0 14 16" fill="none" xmlns="http://www.w3.org/2000/svg">
<path d="M10.1111 9.48356H3.88889C3.68261 9.48356 3.48478 9.56682 3.33892 9.71503C3.19306 9.86324 3.11111 10.0643 3.11111 10.2739C3.11111 10.4835 3.19306 10.6845 3.33892 10.8327C3.48478 10.9809 3.68261 11.0642 3.88889 11.0642H10.1111C10.3174 11.0642 10.5152 10.9809 10.6611 10.8327C10.8069 10.6845 10.8889 10.4835 10.8889 10.2739C10.8889 10.0643 10.8069 9.86324 10.6611 9.71503C10.5152 9.56682 10.3174 9.48356 10.1111 9.48356ZM10.1111 6.32237H5.44444C5.23817 6.32237 5.04033 6.40563 4.89447 6.55384C4.74861 6.70205 4.66667 6.90307 4.66667 7.11267C4.66667 7.32227 4.74861 7.52328 4.89447 7.67149C5.04033 7.8197 5.23817 7.90297 5.44444 7.90297H10.1111C10.3174 7.90297 10.5152 7.8197 10.6611 7.67149C10.8069 7.52328 10.8889 7.32227 10.8889 7.11267C10.8889 6.90307 10.8069 6.70205 10.6611 6.55384C10.5152 6.40563 10.3174 6.32237 10.1111 6.32237ZM13.2222 1.58059H10.8889V0.790296C10.8889 0.580697 10.8069 0.379682 10.6611 0.231472C10.5152 0.0832631 10.3174 0 10.1111 0C9.90483 0 9.707 0.0832631 9.56114 0.231472C9.41528 0.379682 9.33333 0.580697 9.33333 0.790296V1.58059H7.77778V0.790296C7.77778 0.580697 7.69583 0.379682 7.54997 0.231472C7.40411 0.0832631 7.20628 0 7 0C6.79372 0 6.59589 0.0832631 6.45003 0.231472C6.30417 0.379682 6.22222 0.580697 6.22222 0.790296V1.58059H4.66667V0.790296C4.66667 0.580697 4.58472 0.379682 4.43886 0.231472C4.293 0.0832631 4.09517 0 3.88889 0C3.68261 0 3.48478 0.0832631 3.33892 0.231472C3.19306 0.379682 3.11111 0.580697 3.11111 0.790296V1.58059H0.777778C0.571498 1.58059 0.373667 1.66386 0.227806 1.81207C0.0819442 1.96027 0 2.16129 0 2.37089V13.435C0 14.0638 0.245833 14.6669 0.683418 15.1115C1.121 15.5561 1.71449 15.8059 2.33333 15.8059H11.6667C12.2855 15.8059 12.879 15.5561 13.3166 15.1115C13.7542 14.6669 14 14.0638 14 13.435V2.37089C14 2.16129 13.9181 1.96027 13.7722 1.81207C13.6263 1.66386 13.4285 1.58059 13.2222 1.58059ZM12.4444 13.435C12.4444 13.6446 12.3625 13.8457 12.2166 13.9939C12.0708 14.1421 11.8729 14.2253 11.6667 14.2253H2.33333C2.12705 14.2253 1.92922 14.1421 1.78336 13.9939C1.6375 13.8457 1.55556 13.6446 1.55556 13.435V3.16119H3.11111V3.95148C3.11111 4.16108 3.19306 4.3621 3.33892 4.51031C3.48478 4.65852 3.68261 4.74178 3.88889 4.74178C4.09517 4.74178 4.293 4.65852 4.43886 4.51031C4.58472 4.3621 4.66667 4.16108 4.66667 3.95148V3.16119H6.22222V3.95148C6.22222 4.16108 6.30417 4.3621 6.45003 4.51031C6.59589 4.65852 6.79372 4.74178 7 4.74178C7.20628 4.74178 7.40411 4.65852 7.54997 4.51031C7.69583 4.3621 7.77778 4.16108 7.77778 3.95148V3.16119H9.33333V3.95148C9.33333 4.16108 9.41528 4.3621 9.56114 4.51031C9.707 4.65852 9.90483 4.74178 10.1111 4.74178C10.3174 4.74178 10.5152 4.65852 10.6611 4.51031C10.8069 4.3621 10.8889 4.16108 10.8889 3.95148V3.16119H12.4444V13.435Z" fill="#696969"/>
</svg>
