<svg width="20" height="20" viewBox="0 0 20 20" fill="none" xmlns="http://www.w3.org/2000/svg">
<path d="M8.33332 4.99992H5.83332C5.3913 4.99992 4.96737 5.17551 4.65481 5.48807C4.34225 5.80063 4.16666 6.22456 4.16666 6.66659V14.1666C4.16666 14.6086 4.34225 15.0325 4.65481 15.3451C4.96737 15.6577 5.3913 15.8333 5.83332 15.8333H13.3333C13.7754 15.8333 14.1993 15.6577 14.5118 15.3451C14.8244 15.0325 15 14.6086 15 14.1666V11.6666M11.6667 5.83325C11.6667 6.49629 11.93 7.13218 12.3989 7.60102C12.8677 8.06986 13.5036 8.33325 14.1667 8.33325C14.8297 8.33325 15.4656 8.06986 15.9344 7.60102C16.4033 7.13218 16.6667 6.49629 16.6667 5.83325C16.6667 5.17021 16.4033 4.53433 15.9344 4.06549C15.4656 3.59664 14.8297 3.33325 14.1667 3.33325C13.5036 3.33325 12.8677 3.59664 12.3989 4.06549C11.93 4.53433 11.6667 5.17021 11.6667 5.83325Z" stroke="black" stroke-width="2" stroke-linecap="round" stroke-linejoin="round"/>
</svg>
