<svg width="16" height="16" viewBox="0 0 16 16" fill="none" xmlns="http://www.w3.org/2000/svg">
<g clip-path="url(#clip0_528_758)">
<path d="M16.1 12.2891V12.2476L16.0707 12.2183L10.8711 7.02645C10.942 6.79041 10.997 6.54987 11.0362 6.30486C11.0788 6.03918 11.1 5.77088 11.1 5.5L11.1 5.49898C11.0947 4.98064 11.0286 4.48523 10.9012 4.01303C10.7739 3.5407 10.5854 3.09475 10.3359 2.67543C10.087 2.25695 9.79282 1.87796 9.45352 1.53866C9.11423 1.19937 8.73774 0.907727 8.32424 0.663863C7.91022 0.419701 7.46461 0.231435 6.9877 0.0989607C6.50991 -0.0337603 6.0139 -0.1 5.5 -0.100005L5.49898 -0.0999948C4.98064 -0.0947057 4.48523 -0.0285733 4.01303 0.0987614C3.5407 0.22613 3.09475 0.41459 2.67543 0.664059C2.25695 0.913028 1.87796 1.20718 1.53866 1.54648C1.19937 1.88577 0.907727 2.26226 0.663863 2.67576C0.419701 3.08978 0.231435 3.53539 0.0989607 4.0123C-0.0337603 4.49009 -0.1 4.9861 -0.100005 5.5L-0.0999948 5.50102C-0.0947057 6.01936 -0.0285733 6.51477 0.0987614 6.98697C0.22613 7.4593 0.41459 7.90525 0.664059 8.32457C0.913028 8.74305 1.20718 9.12204 1.54648 9.46134C1.88577 9.80063 2.26226 10.0923 2.67576 10.3361C3.08978 10.5803 3.53539 10.7686 4.0123 10.901C4.49009 11.0338 4.9861 11.1 5.5 11.1C5.94552 11.1 6.38326 11.047 6.81303 10.9408C7.18961 10.8479 7.55197 10.7162 7.9 10.5458V12V12.1H8H9.9V14V14.1H10H11.9V16V16.1H12H16H16.1V16V12.2891ZM9.51608 7.28431L9.49265 7.34501L9.53866 7.39102L14.9 12.7524V14.9H13.1V13V12.9H13H11.1V11V10.9H11H9.1V9V8.9H9H8.30469H8.26907L8.24148 8.92251C7.85459 9.23813 7.42456 9.47988 6.95093 9.64794C6.47723 9.81603 5.99386 9.89996 5.50038 9.9C4.88813 9.89484 4.31825 9.77754 3.78971 9.54885C3.25918 9.31929 2.79303 9.00589 2.39057 8.60853C1.98859 8.21163 1.67291 7.74594 1.44348 7.21061C1.21471 6.67682 1.10005 6.10709 1.1 5.50042C1.10515 4.88815 1.22245 4.31826 1.45115 3.78971C1.68071 3.25918 1.99411 2.79303 2.39147 2.39057C2.78837 1.98859 3.25406 1.67291 3.78939 1.44348C4.32318 1.21471 4.89291 1.10005 5.49958 1.1C6.11185 1.10515 6.68174 1.22245 7.21029 1.45115C7.74082 1.68071 8.20697 1.99411 8.60943 2.39147C9.01141 2.78837 9.32709 3.25406 9.55652 3.78939C9.78534 4.3233 9.9 4.89317 9.9 5.5C9.9 5.81533 9.86441 6.11719 9.79351 6.40584C9.72165 6.69842 9.6292 6.99124 9.51608 7.28431ZM4.4305 2.98642C4.29774 2.9287 4.15448 2.90024 4.00192 2.9C3.85129 2.8945 3.70616 2.92376 3.56771 2.98722C3.43296 3.04898 3.31608 3.12843 3.21835 3.22616C3.12056 3.32396 3.04328 3.43871 2.98642 3.5695C2.9287 3.70226 2.90024 3.84552 2.9 3.99808C2.8945 4.14871 2.92376 4.29384 2.98722 4.43229C3.04898 4.56704 3.12843 4.68392 3.22616 4.78165C3.32396 4.87944 3.43871 4.95672 3.5695 5.01358C3.70226 5.0713 3.84552 5.09976 3.99809 5.1C4.14872 5.1055 4.29385 5.07623 4.43229 5.01278C4.56704 4.95102 4.68392 4.87157 4.78165 4.77384C4.87944 4.67604 4.95672 4.56129 5.01358 4.4305C5.0713 4.29774 5.09976 4.15448 5.1 4.00191C5.1055 3.85128 5.07623 3.70615 5.01278 3.56771C4.95102 3.43296 4.87157 3.31608 4.77384 3.21835C4.67604 3.12056 4.56129 3.04328 4.4305 2.98642Z" fill="#696969" stroke="#696969" stroke-width="0.2"/>
</g>
<defs>
<clipPath id="clip0_528_758">
<rect width="16" height="16" fill="white"/>
</clipPath>
</defs>
</svg>
