<svg width="19" height="33" viewBox="0 0 19 33" fill="none" xmlns="http://www.w3.org/2000/svg">
<g clip-path="url(#clip0_189_107)">
<path d="M1.95429 33C1.43598 33 0.938897 32.7914 0.572397 32.4201C0.205897 32.0487 0 31.5451 0 31.02L0 7.777C0 6.68388 0.875357 5.797 1.95429 5.797H4.26957C4.34376 5.797 4.41207 5.8135 4.4745 5.8465L4.47179 5.84512V0.231C4.47179 0.103125 4.57357 0 4.69979 0H12.8698C12.996 0 13.0978 0.103125 13.0978 0.231V5.81213C13.1332 5.80261 13.1697 5.79799 13.2064 5.79838H15.2624C16.3414 5.79838 17.2167 6.68525 17.2167 7.77838V13.321C17.2775 13.2894 17.3452 13.2738 17.4135 13.2756H18.4409C18.6933 13.2756 18.8982 13.4832 18.8982 13.739V25.8005C18.8982 25.9234 18.85 26.0413 18.7643 26.1282C18.6785 26.2151 18.5622 26.2639 18.4409 26.2639H17.4135C17.3442 26.2658 17.2755 26.2497 17.214 26.2171L17.2167 26.2185V31.02C17.2167 31.5451 17.0108 32.0487 16.6443 32.4201C16.2778 32.7914 15.7807 33 15.2624 33H1.95429ZM11.894 28.5574V30.1166C11.8944 30.1781 11.9186 30.237 11.9616 30.2805C12.0045 30.324 12.0626 30.3486 12.1234 30.349H13.9338C13.9945 30.3486 14.0526 30.324 14.0956 30.2805C14.1385 30.237 14.1628 30.1781 14.1631 30.1166V28.5574C14.1624 28.4961 14.138 28.4375 14.0951 28.3943C14.0522 28.3511 13.9943 28.3267 13.9338 28.3264H12.1206C12.0602 28.3267 12.0022 28.3511 11.9593 28.3943C11.9164 28.4375 11.892 28.4961 11.8913 28.5574H11.894ZM7.61086 28.5574V30.1166C7.61121 30.1781 7.63549 30.237 7.67843 30.2805C7.72136 30.324 7.77949 30.3486 7.84021 30.349H9.64929C9.71 30.3486 9.76814 30.324 9.81107 30.2805C9.85401 30.237 9.87829 30.1781 9.87864 30.1166V28.5574C9.87793 28.4961 9.8535 28.4375 9.8106 28.3943C9.7677 28.3511 9.70977 28.3267 9.64929 28.3264H7.83886C7.77837 28.3267 7.72044 28.3511 7.67754 28.3943C7.63465 28.4375 7.61157 28.4961 7.61086 28.5574ZM3.32771 28.5574V30.118C3.32771 30.2459 3.4295 30.349 3.55571 30.349H5.36614C5.42686 30.3486 5.48499 30.324 5.52793 30.2805C5.57087 30.237 5.59514 30.1781 5.5955 30.1166V28.5574C5.59479 28.4961 5.57035 28.4375 5.52746 28.3943C5.48456 28.3511 5.42663 28.3267 5.36614 28.3264H3.55571C3.49546 28.3271 3.43788 28.3517 3.39527 28.3948C3.35267 28.438 3.32842 28.4963 3.32771 28.5574ZM11.8926 25.0222V26.5815C11.893 26.643 11.9173 26.7019 11.9602 26.7454C12.0031 26.7889 12.0613 26.8135 12.122 26.8139H13.9324C13.9931 26.8135 14.0513 26.7889 14.0942 26.7454C14.1371 26.7019 14.1614 26.643 14.1618 26.5815V25.0209C14.1611 24.9598 14.1368 24.9015 14.0942 24.8583C14.0516 24.8152 13.994 24.7906 13.9338 24.7899H12.1193C12.059 24.7906 12.0015 24.8152 11.9588 24.8583C11.9162 24.9015 11.892 24.9598 11.8913 25.0209L11.8926 25.0222ZM7.6095 25.0222V26.5815C7.60986 26.643 7.63413 26.7019 7.67707 26.7454C7.72001 26.7889 7.77814 26.8135 7.83886 26.8139H9.64929C9.71 26.8135 9.76814 26.7889 9.81107 26.7454C9.85401 26.7019 9.87829 26.643 9.87864 26.5815V25.0209C9.87794 24.9598 9.85369 24.9015 9.81108 24.8583C9.76848 24.8152 9.71089 24.7906 9.65064 24.7899H7.8375C7.77725 24.7906 7.71967 24.8152 7.67706 24.8583C7.63445 24.9015 7.6102 24.9612 7.6095 25.0222ZM3.32636 25.0222V26.5829C3.32636 26.7108 3.42814 26.8139 3.55436 26.8139H5.36479C5.42551 26.8135 5.48364 26.7889 5.52657 26.7454C5.56951 26.7019 5.59379 26.643 5.59414 26.5815V25.0209C5.59344 24.9598 5.56919 24.9015 5.52658 24.8583C5.48398 24.8152 5.42639 24.7906 5.36614 24.7899H3.55436C3.49411 24.7906 3.43652 24.8152 3.39392 24.8583C3.35131 24.9015 3.32706 24.9612 3.32636 25.0222ZM11.8913 21.4858V23.0464C11.8913 23.1742 11.9931 23.2774 12.1193 23.2774H13.9324C13.9927 23.2767 14.0503 23.2521 14.0929 23.2089C14.1355 23.1658 14.1597 23.1074 14.1604 23.0464V21.4858C14.1597 21.4245 14.1353 21.3659 14.0924 21.3227C14.0495 21.2795 13.9916 21.2551 13.9311 21.2547H12.1206C12.0602 21.2551 12.0022 21.2795 11.9593 21.3227C11.9164 21.3659 11.892 21.4245 11.8913 21.4858ZM7.60814 21.4858V23.0464C7.60814 23.1742 7.70993 23.2774 7.83614 23.2774H9.64929C9.70954 23.2767 9.76712 23.2521 9.80973 23.2089C9.85233 23.1658 9.87658 23.1074 9.87729 23.0464V21.4858C9.87657 21.4245 9.85214 21.3659 9.80924 21.3227C9.76634 21.2795 9.70842 21.2551 9.64793 21.2547H7.8375C7.77701 21.2551 7.71908 21.2795 7.67619 21.3227C7.63329 21.3659 7.60885 21.4245 7.60814 21.4858ZM3.325 21.4858V23.0464C3.325 23.1742 3.42679 23.2774 3.553 23.2774H5.36614C5.42639 23.2767 5.48398 23.2521 5.52658 23.2089C5.56919 23.1658 5.59344 23.1074 5.59414 23.0464V21.4858C5.59343 21.4245 5.569 21.3659 5.5261 21.3227C5.4832 21.2795 5.42527 21.2551 5.36479 21.2547H3.55436C3.49411 21.2555 3.43652 21.28 3.39392 21.3232C3.35131 21.3664 3.3257 21.4247 3.325 21.4858ZM3.04 12.2554V19.0094C3.04 19.1372 3.14179 19.2404 3.268 19.2404H13.8021C13.8624 19.2397 13.92 19.2151 13.9626 19.1719C14.0052 19.1288 14.0294 19.0704 14.0301 19.0094V12.2554C14.0298 12.1939 14.0055 12.135 13.9626 12.0915C13.9196 12.048 13.8615 12.0234 13.8008 12.023H3.26936C3.20864 12.0234 3.15051 12.048 3.10757 12.0915C3.06463 12.135 3.04036 12.1939 3.04 12.2554ZM2.356 8.56763V10.2039C2.356 10.5875 2.66271 10.8983 3.04136 10.8983H14.44C14.6218 10.8983 14.7961 10.8251 14.9246 10.6949C15.0532 10.5647 15.1254 10.388 15.1254 10.2039V8.56763C15.1254 8.38346 15.0532 8.20685 14.9246 8.07663C14.7961 7.94641 14.6218 7.87325 14.44 7.87325H13.0964V9.262H13.7587V9.50675H3.72671V9.262H4.16236C4.27248 9.26226 4.381 9.23536 4.47857 9.18363L4.4745 9.185V7.95025C4.37763 7.89943 4.27009 7.87301 4.161 7.87325H3.03864C2.85711 7.87361 2.68314 7.94693 2.5549 8.07711C2.42666 8.20729 2.356 8.3837 2.356 8.56763Z" fill="black"/>
</g>
<defs>
<clipPath id="clip0_189_107">
<rect width="19" height="33" fill="white"/>
</clipPath>
</defs>
</svg>
