<svg width="20" height="20" viewBox="0 0 20 20" fill="none" xmlns="http://www.w3.org/2000/svg">
<path d="M19.388 0.405C19.33 0.260512 19.2185 0.143953 19.0768 0.0795723C18.935 0.0151911 18.7739 0.00794451 18.6269 0.0593401C18.4799 0.110736 18.3584 0.216816 18.2877 0.355513C18.2169 0.49421 18.2024 0.654845 18.247 0.804C19.176 3.474 17.332 5.468 15.926 6.536L15.358 5.722C15.167 5.449 14.74 5.222 14.408 5.218L11.22 5.232C10.8306 5.24366 10.4515 5.36045 10.123 5.57L0.729048 12.157C0.510543 12.3108 0.361867 12.5448 0.315573 12.808C0.269279 13.0711 0.32914 13.3419 0.482048 13.561L4.75105 19.669C5.07105 20.124 5.58205 20.069 6.03805 19.751L15.432 13.163C15.702 12.972 16.014 12.56 16.124 12.245L17.122 9.1C17.232 8.786 17.165 8.307 16.974 8.034L16.628 7.538C18.516 6.091 20.476 3.534 19.388 0.405ZM15.017 9.763C14.6674 10.0071 14.2351 10.1025 13.8151 10.0283C13.3952 9.95406 13.0218 9.71622 12.777 9.367C12.532 9.01666 12.4359 8.58339 12.51 8.1623C12.584 7.74121 12.8221 7.36671 13.172 7.121C13.4465 6.92924 13.774 6.82783 14.1088 6.83088C14.4436 6.83392 14.7691 6.94128 15.04 7.138C14.768 7.302 14.581 7.398 14.546 7.413C14.4221 7.47211 14.3219 7.57156 14.2618 7.69507C14.2018 7.81859 14.1855 7.95883 14.2156 8.09282C14.2457 8.22681 14.3204 8.34661 14.4275 8.43258C14.5346 8.51854 14.6677 8.56559 14.805 8.566C14.8917 8.566 14.9774 8.54633 15.062 8.507C15.2567 8.41567 15.463 8.30567 15.681 8.177C15.7304 8.47703 15.6942 8.78489 15.5768 9.06536C15.4594 9.34583 15.2654 9.58759 15.017 9.763Z" fill="#696969"/>
</svg>
