<svg width="18" height="20" viewBox="0 0 18 20" fill="none" xmlns="http://www.w3.org/2000/svg">
<path d="M8.99832 1.66675C6.49165 1.66675 4.86665 3.34925 2.94499 3.96258C2.16332 4.21258 1.77249 4.33675 1.61415 4.51258C1.45582 4.68758 1.40999 4.94508 1.31749 5.45841C0.325819 10.9551 2.49249 16.0367 7.65915 18.0151C8.21332 18.2276 8.49082 18.3334 9.00082 18.3334C9.51082 18.3334 9.78915 18.2267 10.3442 18.0142C15.51 16.0367 17.6742 10.9551 16.6825 5.45841C16.59 4.94508 16.5433 4.68758 16.385 4.51175C16.2267 4.33591 15.8367 4.21175 15.055 3.96258C13.1325 3.34925 11.505 1.66675 8.99832 1.66675Z" stroke="black" stroke-width="1.5" stroke-linecap="round" stroke-linejoin="round"/>
<path d="M7.54164 8.29914C7.54164 8.24914 7.54831 7.96081 7.54997 7.59914C7.54997 7.26748 7.52164 6.94914 7.67997 6.65748C8.27164 5.47914 9.97164 5.59914 10.3916 6.79914C10.4641 6.99664 10.4691 7.30914 10.4666 7.59914C10.4641 7.96831 10.4716 8.29914 10.4716 8.29914M7.61414 8.64998C6.71414 8.64998 6.26414 9.29998 6.16414 9.69998C6.06414 10.1 6.06414 11.55 6.12414 12.15C6.32414 12.9 6.82414 13.21 7.31414 13.31C7.76414 13.35 9.66414 13.335 10.2141 13.335C11.0141 13.35 11.6141 13.05 11.8641 12.15C11.9141 11.85 11.9641 10.2 11.8391 9.69998C11.5741 8.89998 10.9141 8.64998 10.4141 8.64998H7.61414Z" stroke="black" stroke-width="1.5" stroke-linecap="round" stroke-linejoin="round"/>
</svg>
