<svg width="20" height="20" viewBox="0 0 20 20" fill="none" xmlns="http://www.w3.org/2000/svg">
<path d="M9.375 12.5H5.625C5.12772 12.5 4.65081 12.6975 4.29917 13.0492C3.94754 13.4008 3.75 13.8777 3.75 14.375V15.625H5V14.375C5 14.2092 5.06585 14.0503 5.18306 13.9331C5.30027 13.8158 5.45924 13.75 5.625 13.75H9.375C9.54076 13.75 9.69973 13.8158 9.81694 13.9331C9.93415 14.0503 10 14.2092 10 14.375V15.625H11.25V14.375C11.25 13.8777 11.0525 13.4008 10.7008 13.0492C10.3492 12.6975 9.87228 12.5 9.375 12.5ZM7.5 11.875C7.99445 11.875 8.4778 11.7284 8.88893 11.4537C9.30005 11.179 9.62048 10.7885 9.8097 10.3317C9.99892 9.87489 10.0484 9.37223 9.95196 8.88728C9.8555 8.40232 9.6174 7.95687 9.26777 7.60723C8.91814 7.2576 8.47268 7.0195 7.98773 6.92304C7.50277 6.82657 7.00011 6.87608 6.54329 7.0653C6.08648 7.25452 5.69603 7.57495 5.42133 7.98608C5.14662 8.3972 5 8.88055 5 9.375C5 10.038 5.26339 10.6739 5.73223 11.1428C6.20107 11.6116 6.83696 11.875 7.5 11.875ZM7.5 8.125C7.74723 8.125 7.9889 8.19831 8.19446 8.33566C8.40002 8.47302 8.56024 8.66824 8.65485 8.89665C8.74946 9.12505 8.77421 9.37639 8.72598 9.61886C8.67775 9.86134 8.5587 10.0841 8.38388 10.2589C8.20907 10.4337 7.98634 10.5528 7.74386 10.601C7.50139 10.6492 7.25005 10.6245 7.02165 10.5299C6.79324 10.4352 6.59801 10.275 6.46066 10.0695C6.32331 9.8639 6.25 9.62223 6.25 9.375C6.25 9.04348 6.3817 8.72554 6.61612 8.49112C6.85054 8.2567 7.16848 8.125 7.5 8.125Z" fill="black"/>
<path d="M17.5 11.875V17.5H2.5V5H10V3.75H2.5C2.16848 3.75 1.85054 3.8817 1.61612 4.11612C1.3817 4.35054 1.25 4.66848 1.25 5V17.5C1.25 17.8315 1.3817 18.1495 1.61612 18.3839C1.85054 18.6183 2.16848 18.75 2.5 18.75H17.5C17.8315 18.75 18.1495 18.6183 18.3839 18.3839C18.6183 18.1495 18.75 17.8315 18.75 17.5V11.875H17.5Z" fill="black"/>
<path d="M12.5 11.875H16.25V13.125H12.5V11.875ZM13.75 14.375H16.25V15.625H13.75V14.375ZM20 6.25V5H18.6869C18.6058 4.60891 18.4505 4.23699 18.2294 3.90438L19.1606 2.97312L18.2769 2.08937L17.3456 3.02063C17.013 2.79951 16.6411 2.64421 16.25 2.56312V1.25H15V2.56312C14.6089 2.64421 14.237 2.79951 13.9044 3.02063L12.9731 2.08937L12.0894 2.97312L13.0206 3.90438C12.7995 4.23699 12.6442 4.60891 12.5631 5H11.25V6.25H12.5631C12.6442 6.64109 12.7995 7.01301 13.0206 7.34562L12.0894 8.27688L12.9731 9.16062L13.9044 8.22937C14.237 8.45049 14.6089 8.60579 15 8.68688V10H16.25V8.68688C16.6411 8.60579 17.013 8.45049 17.3456 8.22937L18.2769 9.16062L19.1606 8.27688L18.2294 7.34562C18.4505 7.01301 18.6058 6.64109 18.6869 6.25H20ZM15.625 7.5C15.2542 7.5 14.8916 7.39003 14.5833 7.18401C14.275 6.97798 14.0346 6.68514 13.8927 6.34253C13.7508 5.99992 13.7137 5.62292 13.786 5.25921C13.8584 4.89549 14.037 4.5614 14.2992 4.29917C14.5614 4.03695 14.8955 3.85838 15.2592 3.78603C15.6229 3.71368 15.9999 3.75081 16.3425 3.89273C16.6851 4.03464 16.978 4.27496 17.184 4.58331C17.39 4.89165 17.5 5.25416 17.5 5.625C17.4995 6.12213 17.3018 6.59875 16.9503 6.95028C16.5988 7.3018 16.1221 7.4995 15.625 7.5Z" fill="black"/>
</svg>
