<svg width="14" height="14" viewBox="0 0 14 14" fill="none" xmlns="http://www.w3.org/2000/svg">
<path d="M7.00001 0.333252C7.88407 0.333252 8.73191 0.684441 9.35703 1.30956C9.98215 1.93468 10.3333 2.78253 10.3333 3.66659C10.3333 4.55064 9.98215 5.39849 9.35703 6.02361C8.73191 6.64873 7.88407 6.99992 7.00001 6.99992C6.11595 6.99992 5.26811 6.64873 4.64299 6.02361C4.01787 5.39849 3.66668 4.55064 3.66668 3.66659C3.66668 2.78253 4.01787 1.93468 4.64299 1.30956C5.26811 0.684441 6.11595 0.333252 7.00001 0.333252ZM7.00001 8.66658C10.6833 8.66658 13.6667 10.1583 13.6667 11.9999V13.6666H0.333344V11.9999C0.333344 10.1583 3.31668 8.66658 7.00001 8.66658Z" fill="black"/>
</svg>
