<svg width="18" height="18" viewBox="0 0 18 18" fill="none" xmlns="http://www.w3.org/2000/svg">
<path fill-rule="evenodd" clip-rule="evenodd" d="M10.3887 4.8288C10.1159 5.01796 9.80816 5.15088 9.48342 5.21981C9.15867 5.28875 8.82345 5.29232 8.49732 5.2303C8.17118 5.16829 7.86066 5.04194 7.58388 4.85863C7.30709 4.67533 7.06959 4.43873 6.88523 4.16264C6.70087 3.88656 6.57335 3.57652 6.51009 3.25062C6.44684 2.92472 6.44913 2.58949 6.51683 2.26449C6.58453 1.93948 6.71629 1.63122 6.9044 1.35768C7.09252 1.08414 7.33323 0.85081 7.6125 0.671301C8.16385 0.307125 8.83696 0.176038 9.48468 0.306695C10.1324 0.437353 10.7021 0.819127 11.0691 1.36856C11.4362 1.918 11.5708 2.59041 11.4435 3.23881C11.3163 3.88721 10.9375 4.45886 10.39 4.8288H10.3887ZM9.69499 1.7113C9.55887 1.61337 9.40442 1.54383 9.24086 1.50683C9.0773 1.46982 8.90796 1.4661 8.74294 1.4959C8.57791 1.52569 8.42057 1.58839 8.28027 1.68025C8.13998 1.77211 8.0196 1.89127 7.92631 2.03062C7.83301 2.16997 7.76872 2.32666 7.73724 2.49138C7.70576 2.65609 7.70775 2.82546 7.74308 2.98939C7.77842 3.15332 7.84637 3.30846 7.94291 3.44559C8.03944 3.58271 8.16258 3.699 8.30499 3.78755C8.58014 3.95469 8.90916 4.00923 9.22351 3.93981C9.53787 3.87039 9.81332 3.68237 9.99249 3.4149C10.1717 3.14744 10.2407 2.82116 10.1853 2.50404C10.1299 2.18691 9.95426 1.9034 9.69499 1.71255V1.7113ZM12.9575 1.7488C13.318 1.5063 13.7518 1.3971 14.1842 1.43999C14.6165 1.48289 15.0204 1.67519 15.3262 1.9838C15.5442 2.20349 15.7049 2.47329 15.7943 2.76955C15.8836 3.06581 15.8989 3.37948 15.8388 3.68303C15.7787 3.98659 15.6451 4.27076 15.4496 4.51063C15.2541 4.75049 15.0027 4.93872 14.7175 5.0588C14.375 5.20235 13.9975 5.24026 13.6333 5.16765C13.2691 5.09504 12.935 4.91522 12.6737 4.6513C12.4773 4.45382 12.3269 4.21536 12.2333 3.95297C12.1398 3.69058 12.1054 3.41075 12.1326 3.13352C12.1599 2.85629 12.2481 2.58851 12.3909 2.34934C12.5337 2.11017 12.7276 1.90552 12.9587 1.75005L12.9575 1.7488ZM13.5575 3.7613C13.6749 3.87816 13.8338 3.94362 13.9994 3.94326C14.0815 3.94309 14.1626 3.92677 14.2383 3.89522C14.314 3.86368 14.3828 3.81754 14.4406 3.75943C14.4985 3.70132 14.5443 3.63238 14.5756 3.55655C14.6068 3.48072 14.6228 3.39948 14.6226 3.31748C14.6224 3.23547 14.6061 3.1543 14.5745 3.0786C14.543 3.00291 14.4969 2.93417 14.4387 2.8763C14.323 2.75824 14.1653 2.69082 14 2.6888C13.9176 2.6888 13.836 2.70509 13.7599 2.73673C13.6839 2.76838 13.6148 2.81475 13.5567 2.87318C13.4986 2.93162 13.4527 3.00096 13.4215 3.07722C13.3903 3.15348 13.3745 3.23516 13.375 3.31755C13.3745 3.4001 13.3904 3.48193 13.4217 3.55831C13.453 3.63469 13.4992 3.70286 13.5575 3.7613ZM2.9875 14.6088H5.25V15.8651H2.9875C2.59151 15.8611 2.21317 15.7007 1.935 15.4188C1.79627 15.2789 1.68646 15.1131 1.61182 14.9308C1.53718 14.7485 1.49918 14.5533 1.5 14.3563V12.0938C1.33174 12.088 1.1664 12.0482 1.01389 11.9769C0.861386 11.9056 0.724856 11.8042 0.612495 11.6788C0.492835 11.5583 0.39898 11.4147 0.336655 11.2567C0.274331 11.0988 0.244844 10.9298 0.249995 10.7601V8.03255C0.253745 7.44255 0.487495 6.8788 0.899995 6.46005C1.31125 6.0463 1.8675 5.81005 2.45 5.8063H4.75C4.43943 6.17554 4.20569 6.60306 4.0625 7.0638H2.45C2.19635 7.07132 1.95505 7.17499 1.775 7.3538C1.59861 7.53572 1.49998 7.77916 1.5 8.03255V10.8226H2.75V14.3551C2.74695 14.3891 2.75092 14.4234 2.76167 14.4559C2.77242 14.4884 2.78972 14.5183 2.8125 14.5438C2.86274 14.5826 2.92402 14.6045 2.9875 14.6063V14.6088ZM12.1125 6.4613C11.9078 6.25505 11.6644 6.09116 11.3963 5.97899C11.1282 5.86682 10.8406 5.80856 10.55 5.80755H7.45C6.86741 5.81289 6.31043 6.0478 5.9 6.4613C5.4875 6.88005 5.25375 7.4438 5.25 8.0338V12.0063C5.24823 12.3474 5.37807 12.676 5.6125 12.9238C5.72486 13.0492 5.86139 13.1506 6.01389 13.2219C6.1664 13.2932 6.33174 13.333 6.5 13.3388V16.2426C6.49869 16.4408 6.53668 16.6373 6.61177 16.8207C6.68687 17.0042 6.79757 17.1709 6.9375 17.3113C7.1625 17.5213 7.44625 17.6576 7.75 17.7013H10.25C10.6016 17.6551 10.9237 17.4807 11.1544 17.2114C11.3852 16.9421 11.5083 16.5971 11.5 16.2426V13.3376C11.6683 13.3317 11.8336 13.2919 11.9861 13.2206C12.1386 13.1493 12.2751 13.0479 12.3875 12.9226C12.507 12.8022 12.6008 12.6588 12.6631 12.5011C12.7254 12.3433 12.755 12.1746 12.75 12.0051V8.03255C12.7509 7.44527 12.5221 6.88218 12.1125 6.4613ZM11.5 12.0676H10.25V16.2426C10.2491 16.3085 10.2221 16.3714 10.175 16.4176C10.1537 16.4428 10.1267 16.4627 10.0964 16.4757C10.066 16.4888 10.033 16.4945 10 16.4926H7.9875C7.92217 16.4895 7.86034 16.4622 7.8141 16.416C7.76785 16.3697 7.74054 16.3079 7.73749 16.2426V12.0676H6.5V8.03255C6.5 7.7788 6.59874 7.53505 6.77499 7.3538C6.95505 7.17499 7.19635 7.07132 7.45 7.0638H10.55C10.7393 7.06746 10.9234 7.12614 11.0799 7.23269C11.2364 7.33923 11.3585 7.48903 11.4312 7.6638C11.4772 7.78128 11.5005 7.9064 11.5 8.03255V12.0676ZM15.0125 15.8638H12.75V14.6076H15C15.0635 14.6058 15.1247 14.5839 15.175 14.5451C15.2002 14.5204 15.2199 14.4908 15.2328 14.4581C15.2457 14.4253 15.2516 14.3902 15.25 14.3551V10.8226H16.5V8.03255C16.5 7.77916 16.4014 7.53572 16.225 7.3538C16.0449 7.17499 15.8036 7.07132 15.55 7.0638H13.9375C13.7943 6.60306 13.5606 6.17554 13.25 5.8063H15.55C16.1326 5.81164 16.6896 6.04655 17.1 6.46005C17.5125 6.8788 17.7462 7.44255 17.75 8.03255V10.7601C17.75 11.1013 17.6212 11.4288 17.3887 11.6763C17.1562 11.9251 16.8387 12.0738 16.5 12.0926V14.3551C16.5 14.7538 16.3437 15.1351 16.065 15.4176C15.7868 15.6994 15.4085 15.8598 15.0125 15.8638ZM4 1.4313C3.62788 1.4302 3.26396 1.54058 2.95516 1.74823C2.64637 1.95588 2.40685 2.25126 2.2675 2.5963C2.12678 2.94091 2.09038 3.31926 2.16282 3.68437C2.23527 4.04949 2.41336 4.38528 2.675 4.65005C2.93695 4.91425 3.27172 5.09437 3.63654 5.16739C4.00136 5.24042 4.37967 5.20303 4.72313 5.06001C5.0666 4.91698 5.35964 4.67482 5.56481 4.36445C5.76998 4.05408 5.87797 3.68959 5.875 3.31755C5.875 2.81755 5.6775 2.33755 5.325 1.9838C5.15126 1.80919 4.94481 1.67052 4.71747 1.57572C4.49012 1.48092 4.24632 1.43185 4 1.4313ZM4 3.9463C3.9176 3.9463 3.83602 3.93001 3.75995 3.89837C3.68388 3.86673 3.61481 3.82035 3.55672 3.76192C3.49864 3.70348 3.45268 3.63414 3.42149 3.55788C3.3903 3.48162 3.3745 3.39994 3.375 3.31755C3.37532 3.15154 3.44115 2.99237 3.55819 2.87464C3.67522 2.7569 3.83399 2.69012 4 2.6888C4.16539 2.69203 4.32306 2.75943 4.43968 2.87675C4.5563 2.99407 4.62276 3.15214 4.625 3.31755C4.62467 3.48356 4.55884 3.64273 4.4418 3.76046C4.32477 3.8782 4.166 3.94498 4 3.9463Z" fill="black"/>
</svg>
